<mxfile host="app.diagrams.net" modified="2022-10-01T08:12:51.705Z" agent="5.0 (Macintosh; Intel Mac OS X 10_15_7) AppleWebKit/605.1.15 (KHTML, like Gecko) Version/16.0 Safari/605.1.15" etag="m2BT5ZqMPLx55vfHZJ9e" version="20.3.6" type="github">
  <diagram id="CIYdKKqNAJBwTVAFqt9w" name="Page-1">
    <mxGraphModel dx="1420" dy="800" grid="1" gridSize="10" guides="1" tooltips="1" connect="1" arrows="1" fold="1" page="1" pageScale="1" pageWidth="850" pageHeight="1100" math="0" shadow="0">
      <root>
        <mxCell id="0" />
        <mxCell id="1" parent="0" />
        <mxCell id="0QP-IHk7IyoN1cNLL2Y5-2" value="DB" style="aspect=fixed;html=1;points=[];align=center;image;fontSize=12;image=img/lib/azure2/databases/Azure_Database_PostgreSQL_Server.svg;" parent="1" vertex="1">
          <mxGeometry x="695" y="102" width="48" height="64" as="geometry" />
        </mxCell>
        <mxCell id="0QP-IHk7IyoN1cNLL2Y5-9" value="" style="aspect=fixed;html=1;points=[];align=center;image;fontSize=12;image=img/lib/azure2/general/Browser.svg;" parent="1" vertex="1">
          <mxGeometry x="80" y="88" width="65" height="52" as="geometry" />
        </mxCell>
        <mxCell id="0QP-IHk7IyoN1cNLL2Y5-10" value="" style="aspect=fixed;html=1;points=[];align=center;image;fontSize=12;image=img/lib/azure2/general/Browser.svg;" parent="1" vertex="1">
          <mxGeometry x="90" y="98" width="65" height="52" as="geometry" />
        </mxCell>
        <mxCell id="0QP-IHk7IyoN1cNLL2Y5-11" value="" style="aspect=fixed;html=1;points=[];align=center;image;fontSize=12;image=img/lib/azure2/general/Browser.svg;" parent="1" vertex="1">
          <mxGeometry x="100" y="108" width="65" height="52" as="geometry" />
        </mxCell>
        <mxCell id="0QP-IHk7IyoN1cNLL2Y5-12" value="" style="aspect=fixed;html=1;points=[];align=center;image;fontSize=12;image=img/lib/azure2/general/Browser.svg;" parent="1" vertex="1">
          <mxGeometry x="110" y="118" width="65" height="52" as="geometry" />
        </mxCell>
        <mxCell id="0QP-IHk7IyoN1cNLL2Y5-13" value="" style="endArrow=classic;html=1;rounded=0;entryX=0;entryY=0.495;entryDx=0;entryDy=0;entryPerimeter=0;exitX=1;exitY=0.301;exitDx=0;exitDy=0;exitPerimeter=0;" parent="1" source="0QP-IHk7IyoN1cNLL2Y5-12" edge="1" target="IGyi_H8qXO2sGMiA2ZZ8-1">
          <mxGeometry width="50" height="50" relative="1" as="geometry">
            <mxPoint x="180" y="134" as="sourcePoint" />
            <mxPoint x="400" y="132" as="targetPoint" />
          </mxGeometry>
        </mxCell>
        <mxCell id="0QP-IHk7IyoN1cNLL2Y5-14" value="" style="endArrow=classic;html=1;rounded=0;entryX=-0.014;entryY=0.458;entryDx=0;entryDy=0;entryPerimeter=0;exitX=1;exitY=0.498;exitDx=0;exitDy=0;exitPerimeter=0;" parent="1" source="IGyi_H8qXO2sGMiA2ZZ8-1" target="0QP-IHk7IyoN1cNLL2Y5-2" edge="1">
          <mxGeometry width="50" height="50" relative="1" as="geometry">
            <mxPoint x="470" y="220" as="sourcePoint" />
            <mxPoint x="690" y="132" as="targetPoint" />
          </mxGeometry>
        </mxCell>
        <mxCell id="0QP-IHk7IyoN1cNLL2Y5-15" value="" style="shape=actor;whiteSpace=wrap;html=1;" parent="1" vertex="1">
          <mxGeometry x="87" y="119" width="40" height="60" as="geometry" />
        </mxCell>
        <mxCell id="0QP-IHk7IyoN1cNLL2Y5-16" value="" style="shape=actor;whiteSpace=wrap;html=1;" parent="1" vertex="1">
          <mxGeometry x="97" y="129" width="40" height="60" as="geometry" />
        </mxCell>
        <mxCell id="0QP-IHk7IyoN1cNLL2Y5-17" value="" style="shape=actor;whiteSpace=wrap;html=1;" parent="1" vertex="1">
          <mxGeometry x="107" y="139" width="40" height="60" as="geometry" />
        </mxCell>
        <mxCell id="0QP-IHk7IyoN1cNLL2Y5-18" value="" style="shape=actor;whiteSpace=wrap;html=1;" parent="1" vertex="1">
          <mxGeometry x="117" y="149" width="40" height="60" as="geometry" />
        </mxCell>
        <mxCell id="0QP-IHk7IyoN1cNLL2Y5-19" value="" style="shape=actor;whiteSpace=wrap;html=1;" parent="1" vertex="1">
          <mxGeometry x="127" y="159" width="40" height="60" as="geometry" />
        </mxCell>
        <mxCell id="0QP-IHk7IyoN1cNLL2Y5-22" value="Browser users" style="text;html=1;align=center;verticalAlign=middle;resizable=0;points=[];autosize=1;strokeColor=none;fillColor=none;" parent="1" vertex="1">
          <mxGeometry x="84" y="212" width="100" height="30" as="geometry" />
        </mxCell>
        <mxCell id="0QP-IHk7IyoN1cNLL2Y5-26" value="" style="endArrow=none;dashed=1;html=1;dashPattern=1 3;strokeWidth=2;rounded=0;" parent="1" edge="1">
          <mxGeometry width="50" height="50" relative="1" as="geometry">
            <mxPoint x="280" y="22" as="sourcePoint" />
            <mxPoint x="280" y="20" as="targetPoint" />
            <Array as="points">
              <mxPoint x="770" y="20" />
              <mxPoint x="770" y="320" />
              <mxPoint x="280" y="320" />
            </Array>
          </mxGeometry>
        </mxCell>
        <mxCell id="0QP-IHk7IyoN1cNLL2Y5-27" value="&lt;ul&gt;&lt;li&gt;DB Connection string &lt;i&gt;&lt;font style=&quot;font-size: 11px;&quot;&gt;(w/out username / pwd)&lt;/font&gt;&lt;/i&gt;&lt;/li&gt;&lt;li&gt;App DB User name&lt;/li&gt;&lt;li&gt;App DB User Password&lt;/li&gt;&lt;/ul&gt;" style="text;strokeColor=none;fillColor=none;html=1;whiteSpace=wrap;verticalAlign=middle;overflow=hidden;" parent="1" vertex="1">
          <mxGeometry x="430" y="60" width="176" height="73" as="geometry" />
        </mxCell>
        <mxCell id="0QP-IHk7IyoN1cNLL2Y5-30" value="Azure" style="text;strokeColor=none;fillColor=none;html=1;fontSize=24;fontStyle=1;verticalAlign=middle;align=center;" parent="1" vertex="1">
          <mxGeometry x="670" y="30" width="90" height="40" as="geometry" />
        </mxCell>
        <mxCell id="gKN0slglhCB6e-M4ENdB-1" value="Basic deployment" style="text;strokeColor=none;fillColor=none;html=1;fontSize=24;fontStyle=1;verticalAlign=middle;align=center;" parent="1" vertex="1">
          <mxGeometry x="18" y="20" width="252" height="40" as="geometry" />
        </mxCell>
        <mxCell id="SbZcLWqu1GxGIv8-tLfZ-1" value="GitHub Repo" style="aspect=fixed;html=1;points=[];align=center;image;fontSize=12;image=img/lib/azure2/general/Branch.svg;" parent="1" vertex="1">
          <mxGeometry x="683" y="340" width="72" height="72" as="geometry" />
        </mxCell>
        <mxCell id="Wzz_lYJs2OhC6GSg2xJx-1" value="(No usage of RBAC, KV, Managed Identities..)" style="text;html=1;strokeColor=none;fillColor=none;align=center;verticalAlign=middle;whiteSpace=wrap;rounded=0;fontSize=12;" parent="1" vertex="1">
          <mxGeometry x="33.5" y="52" width="216.5" height="28" as="geometry" />
        </mxCell>
        <mxCell id="IGyi_H8qXO2sGMiA2ZZ8-1" value="Container Instance&lt;br&gt;WEB + API" style="aspect=fixed;html=1;points=[];align=center;image;fontSize=12;image=img/lib/azure2/containers/Container_Instances.svg;" vertex="1" parent="1">
          <mxGeometry x="393" y="99.5" width="64" height="69" as="geometry" />
        </mxCell>
        <mxCell id="IGyi_H8qXO2sGMiA2ZZ8-2" value="Container Registry" style="aspect=fixed;html=1;points=[];align=center;image;fontSize=12;image=img/lib/azure2/containers/Container_Registries.svg;" vertex="1" parent="1">
          <mxGeometry x="391" y="230" width="68" height="61" as="geometry" />
        </mxCell>
        <mxCell id="IGyi_H8qXO2sGMiA2ZZ8-3" value="" style="endArrow=oval;html=1;rounded=0;entryX=0.5;entryY=0.998;entryDx=0;entryDy=0;entryPerimeter=0;exitX=0.495;exitY=-0.005;exitDx=0;exitDy=0;exitPerimeter=0;startArrow=oval;startFill=0;endFill=0;" edge="1" parent="1" source="IGyi_H8qXO2sGMiA2ZZ8-2" target="IGyi_H8qXO2sGMiA2ZZ8-1">
          <mxGeometry width="50" height="50" relative="1" as="geometry">
            <mxPoint x="320" y="270" as="sourcePoint" />
            <mxPoint x="420" y="170" as="targetPoint" />
          </mxGeometry>
        </mxCell>
      </root>
    </mxGraphModel>
  </diagram>
</mxfile>
